# xmcd
#
# Track frame offsets:
#	150
#	19100
#	39561
#	55242
#	72393
#	88679
#	99912
#	114658
#	129008
#	141429
#	157292
#	171448
#	184779
#	206085
#	225481
#	240222
#
# Disc length: 3345 seconds
#
# Revision: 0
# Processed by: cddbd v1.5.1PL2 Copyright (c) Steve Scherf et al.
# Submitted via: dBpowerAMP V4.0
#
DISCID=da0d0f10
DTITLE=Kris Kristofferson - The best of
DYEAR=1900
DGENRE=Country
TTITLE0=Me and Bobby McGee
TTITLE1=Sunday morning coming down
TTITLE2=Why me
TTITLE3=Loving her was easier
TTITLE4=Casey's last ride
TTITLE5=Jesus was a capricorn
TTITLE6=Pilgrim chapter 33
TTITLE7=Josie
TTITLE8=Blame it on the stones
TTITLE9=If you don't like Hank Williams
TTITLE10=Nobody winns
TTITLE11=Duvaliers Dream
TTITLE12=To beat the devil
TTITLE13=Silver tongued devil and i
TTITLE14=The taker
TTITLE15=Help med make it through the night
EXTD=
EXTT0=
EXTT1=
EXTT2=
EXTT3=
EXTT4=
EXTT5=
EXTT6=
EXTT7=
EXTT8=
EXTT9=
EXTT10=
EXTT11=
EXTT12=
EXTT13=
EXTT14=
EXTT15=
PLAYORDER=
